<?xml version="1.0" standalone="no"?>
<!DOCTYPE svg PUBLIC "-//W3C//DTD SVG 1.1//EN" "http://www.w3.org/Graphics/SVG/1.1/DTD/svg11.dtd" >
<svg xmlns="http://www.w3.org/2000/svg">
<metadata>
Created by FontForge 20120731 at Fri Jul 28 11:03:11 2017
 By admin
</metadata>
<defs>
<font id="iconfont" horiz-adv-x="1024" >
  <font-face 
    font-family="iconfont"
    font-weight="500"
    font-stretch="normal"
    units-per-em="1024"
    panose-1="2 0 6 3 0 0 0 0 0 0"
    ascent="896"
    descent="-128"
    x-height="792"
    bbox="-0.0714286 -212 1139.56 896"
    underline-thickness="0"
    underline-position="0"
    unicode-range="U+0078-E773"
  />
<missing-glyph 
 />
    <glyph glyph-name=".notdef" 
 />
    <glyph glyph-name=".notdef" 
 />
    <glyph glyph-name=".null" horiz-adv-x="0" 
 />
    <glyph glyph-name="nonmarkingreturn" horiz-adv-x="341" 
 />
    <glyph glyph-name="glyph3" unicode="x" horiz-adv-x="1001" 
d="M281 543q-27 -1 -53 -1h-83q-18 0 -36.5 -6t-32.5 -18.5t-23 -32t-9 -45.5v-76h912v41q0 16 -0.5 30t-0.5 18q0 13 -5 29t-17 29.5t-31.5 22.5t-49.5 9h-133v-97h-438v97zM955 310v-52q0 -23 0.5 -52t0.5 -58t-10.5 -47.5t-26 -30t-33 -16t-31.5 -4.5q-14 -1 -29.5 -0.5
t-29.5 0.5h-32l-45 128h-439l-44 -128h-29h-34q-20 0 -45 1q-25 0 -41 9.5t-25.5 23t-13.5 29.5t-4 30v167h911zM163 247q-12 0 -21 -8.5t-9 -21.5t9 -21.5t21 -8.5q13 0 22 8.5t9 21.5t-9 21.5t-22 8.5zM316 123q-8 -26 -14 -48q-5 -19 -10.5 -37t-7.5 -25t-3 -15t1 -14.5
t9.5 -10.5t21.5 -4h37h67h81h80h64h36q23 0 34 12t2 38q-5 13 -9.5 30.5t-9.5 34.5q-5 19 -11 39h-368zM336 498v228q0 11 2.5 23t10 21.5t20.5 15.5t34 6h188q31 0 51.5 -14.5t20.5 -52.5v-227h-327z" />
    <glyph glyph-name="bianji" unicode="&#xe6e3;" 
d="M519.5 763q-95.5 0 -182.5 -37t-149.5 -99.5t-99.5 -149.5t-37 -182.5t37 -182.5t99.5 -150t149.5 -100t182.5 -37t182.5 37t150 100t100 150t37 182.5t-37 182.5t-100 149.5t-150 99.5t-182.5 37zM426 279l212 209l73 -76l-209 -212l-76 79v0zM484 190l-116 -50l45 119
l71 -69v0zM741 52v0q0 -4 -3.5 -7.5t-8.5 -3.5h-454q-5 0 -8.5 3.5t-3.5 7.5v451q0 5 3.5 8.5t8.5 3.5h323l-47 -50h-228q-9 0 -9 -10v-354q0 -10 9 -10h358q9 0 9 10v227l51 47v-323v0zM772 470l-42 -44l-77 77l38 37q17 17 39 0q10 -7 20.5 -16.5t15.5 -14.5l6 -6
q1 -3 2 -6.5t2 -13t-4 -13.5z" />
    <glyph glyph-name="pullright" unicode="&#xe720;" 
d="M512 -64q-185 0 -316.5 131.5t-131.5 316.5t131.5 316.5t316.5 131.5t316.5 -131.5t131.5 -316.5t-131.5 -316.5t-316.5 -131.5zM512 768q-159 0 -271.5 -112.5t-112.5 -271.5t112.5 -271.5t271.5 -112.5t271.5 112.5t112.5 271.5t-112.5 271.5t-271.5 112.5zM733 395v0
q-3 6 -7 10v0v0l-159 160q-9 9 -22.5 9t-23 -9t-9.5 -22.5t10 -22.5l103 -104h-305q-13 0 -22.5 -9.5t-9.5 -22.5t9.5 -22.5t22.5 -9.5h307l-106 -105q-10 -9 -10 -22.5t9.5 -23t22.5 -9.5t23 10l160 158q15 15 7 35z" />
    <glyph glyph-name="guanbi" unicode="&#xe644;" 
d="M535 285l398 398q11 12 0 23t-22 0l-399 -399l-399 399q-11 11 -22 0t0 -23l398 -398l-398 -399q-11 -11 0 -22q4 -5 11 -5t11 5l399 398l399 -398q4 -5 11 -5t11 5q11 11 0 22z" />
    <glyph glyph-name="fabu" unicode="&#xe63f;" 
d="M671 666q0 60 -43 103t-103.5 43t-103.5 -43t-43 -103h-73v-73h439v73h-73zM452 666q0 30 21 51.5t51.5 21.5t52 -21.5t21.5 -51.5h-146zM858 666h-59v-73h30q16 0 27.5 -12.5t11.5 -29.5v-648q0 -17 -11.5 -29.5t-27.5 -12.5h-608q-17 0 -28.5 12.5t-11.5 29.5v648
q0 17 11.5 29.5t28.5 12.5h29v73h-59q-32 0 -55 -24.5t-23 -59.5v-710q0 -35 23 -59.5t55 -24.5h667q33 0 56 24.5t23 59.5v710q0 35 -23 59.5t-56 24.5v0zM305 7h439q15 0 26 11t11 26t-11 26t-26 11h-439q-15 0 -25.5 -11t-10.5 -26t10.5 -26t25.5 -11v0zM305 190h439
q15 0 26 11t11 26t-11 25.5t-26 10.5h-439q-15 0 -25.5 -10.5t-10.5 -25.5t10.5 -26t25.5 -11v0zM305 373h439q15 0 26 11t11 26t-11 25.5t-26 10.5h-439q-15 0 -25.5 -10.5t-10.5 -25.5t10.5 -26t25.5 -11v0zM305 373z" />
    <glyph glyph-name="shanchu" unicode="&#xe637;" 
d="M512 792q-100 0 -191 -39t-157 -105t-105 -157t-39 -191t39 -191t105 -157t157 -105t191 -39t191 39t157 105t105 157t39 191t-39 191t-105 157t-157 105t-191 39zM704 76q-6 -29 -22 -46.5t-40 -17.5h-249q-24 0 -40 17.5t-22 46.5l-2 368h377zM768 510q0 -9 -6 -15
t-15 -6h-470q-9 0 -15 6t-6 15v13q0 8 6 14.5t15 6.5h108q21 0 34 17l8 10q12 17 34 17h113q21 0 34 -17l8 -10q12 -17 34 -17h97q9 0 15 -6.5t6 -14.5v-13z" />
    <glyph glyph-name="weibiaoti8" unicode="&#xe603;" 
d="M436 292l-409 -398l98 -80l477 482l-506 474l-81 -90zM858 292l-409 -398l98 -80l477 482l-506 474l-81 -90z" />
    <glyph glyph-name="weibiaoti9" unicode="&#xe604;" 
d="M594 283l406 400l-98 80l-474 -485l509 -471l81 91zM172 281l406 401l-99 79l-473 -484l509 -471l81 91z" />
    <glyph glyph-name="zengjia" unicode="&#xe674;" 
d="M0 469v-170h427v-427h170v427h427v170h-427v427h-170v-427h-427z" />
    <glyph glyph-name="iconfont303" unicode="&#xe606;" 
d="M192 576h640q27 0 45.5 18.5t18.5 45.5t-18.5 45.5t-45.5 18.5h-640q-27 0 -45.5 -18.5t-18.5 -45.5t18.5 -45.5t45.5 -18.5zM832 448h-640q-27 0 -45.5 -18.5t-18.5 -45.5t18.5 -45.5t45.5 -18.5h640q27 0 45.5 18.5t18.5 45.5t-18.5 45.5t-45.5 18.5zM832 192h-640
q-27 0 -45.5 -18.5t-18.5 -45.5t18.5 -45.5t45.5 -18.5h640q27 0 45.5 18.5t18.5 45.5t-18.5 45.5t-45.5 18.5z" />
    <glyph glyph-name="chenggong" unicode="&#xe6bf;" 
d="M512 27q-55 0 -104 18.5t-78.5 41.5t-54.5 53t-32.5 43.5t-11.5 21.5q-5 11 -1 22t14.5 16t21.5 1t16 -14v0q4 -8 10 -18.5t26.5 -35t45 -43.5t64.5 -34t84 -15q48 0 89.5 15t65 34t42.5 43.5t24 35t8 17.5q4 12 14.5 16.5t21.5 0.5t16 -14.5t1 -21.5q-1 -4 -4 -11
t-14.5 -26t-25 -36t-37.5 -38t-51.5 -36t-66.5 -25.5t-83 -10.5v0zM512 27zM695 567q30 0 51.5 -21.5t21.5 -52t-21.5 -51.5t-52 -21t-51.5 21t-21 51.5t21 52t52 21.5v0zM695 567zM330 567q30 0 51.5 -21.5t21.5 -52t-21.5 -51.5t-52 -21t-52 21t-21.5 51.5t21.5 52
t52.5 21.5v0zM330 567zM512 -128q-104 0 -198.5 41t-163 109.5t-109.5 163t-41 198.5t41 198.5t109.5 163t163 109.5t198.5 41t198.5 -41t163 -109.5t109.5 -163t41 -198.5t-41 -198.5t-109.5 -163t-163 -109.5t-198.5 -41v0zM512 839q-92 0 -176.5 -36.5t-145 -97t-97 -145
t-36.5 -176.5t36.5 -176.5t97 -145t145 -97t176.5 -36.5t176.5 36.5t145 97t97 145t36.5 176.5t-36 176.5t-97 145t-145.5 97t-176.5 36.5v0zM512 839z" />
    <glyph glyph-name="xiangshang2" unicode="&#xe76e;" 
d="M887 279l-353 350l-1 0.5l-1 0.5v1q-10 9 -23 9t-22 -10l-350 -353q-10 -9 -10 -22.5t9.5 -22.5t23 -9t22.5 9l328 331l332 -330q10 -9 23 -9t22.5 9.5t9.5 23t-10 22.5z" />
    <glyph glyph-name="xiangxia2" unicode="&#xe772;" 
d="M890.5 565q-9.5 9 -23 9t-22.5 -9l-328 -331l-332 329q-10 10 -23 10t-22.5 -9.5t-9.5 -23t10 -22.5l353 -350l1 -0.5l1 -0.5v-1q10 -9 23 -9t22 9l350 354q10 9 10 22.5t-9.5 22.5z" />
    <glyph glyph-name="geren" unicode="&#xe657;" 
d="M587 382q42 22 67.5 62.5t25.5 88.5q0 70 -49.5 120t-119.5 50t-120 -50t-50 -120q0 -48 25.5 -88.5t67.5 -62.5q-72 -24 -118.5 -87t-46.5 -141q0 -9 6 -15t14.5 -6t14.5 6t6 15q0 82 59 141t141.5 59t141.5 -59t59 -141q0 -9 6 -15t14.5 -6t14.5 6t6 15q0 78 -46 141
t-119 87zM382 533q0 53 38 91t91 38t90.5 -38t37.5 -91t-37.5 -90.5t-90.5 -37.5t-91 37.5t-38 90.5zM828 700q-63 63 -145 97t-171 34t-171 -34t-145 -97t-97 -145t-34 -171t34 -171t97 -145t145 -97t171 -34t171 34t145 97t97 145t34 171t-34 171t-97 145zM512 -22
q-110 0 -203.5 54.5t-148 148t-54.5 203.5t54.5 203.5t148 148t203.5 54.5t203.5 -54.5t148 -148t54.5 -203.5t-54.5 -203.5t-148 -148t-203.5 -54.5z" />
    <glyph glyph-name="jiesuo" unicode="&#xe66a;" 
d="M754 524h-18v84q0 92 -63 157q-66 68 -161 68t-160 -65t-65 -160v-84h-17q-47 0 -80.5 -33t-33.5 -80v-358q0 -47 33.5 -80.5t80.5 -33.5h484q47 0 80.5 33.5t33.5 80.5v358q0 47 -33.5 80t-80.5 33zM328 608q0 77 53 130t131 53t131 -54q52 -54 52 -129v-84h-367v84z
M826 53q0 -30 -21 -51t-51 -21h-484q-30 0 -51 21t-21 51v358q0 30 21 51t51 21h484q30 0 51 -21t21 -51v-358zM509.5 316q-8.5 0 -14.5 -6.5t-6 -14.5v-110q0 -8 6 -14t14.5 -6t15 6t6.5 14v110q0 8 -6.5 14.5t-15 6.5z" />
    <glyph glyph-name="zanting" unicode="&#xe669;" 
d="M512 896q-138 0 -256 -69t-187 -187t-69 -256t69 -256t187 -187t256 -69t256 69t187 187t69 256t-69 256t-187 187t-256 69zM454 173q0 -14 -12.5 -23t-32 -9t-32 9t-12.5 23v422q0 14 12.5 23t32 9t32 -9t12.5 -23v-422zM666 173q0 -14 -13 -23t-32.5 -9t-32 9t-12.5 23
v422q0 14 12.5 23t32 9t32.5 -9t13 -23v-422z" />
    <glyph glyph-name="yanzhengma" unicode="&#xe71c;" 
d="M536 408v153h103q9 0 14.5 6t5.5 14t-5.5 14t-14.5 6h-103v112h103q9 0 14.5 6t5.5 14t-5.5 14t-14.5 6h-103v52q0 8 -6 14t-14 6t-14 -6t-6 -14v-397q-91 -8 -153.5 -75.5t-62.5 -159.5q0 -98 69 -167t167 -69t167 69t69 167q0 92 -62.5 159.5t-153.5 75.5zM516 -23
q-81 0 -138.5 57.5t-57.5 138.5t57.5 138.5t138.5 57.5t138.5 -57.5t57.5 -138.5t-57.5 -138.5t-138.5 -57.5z" />
    <glyph glyph-name="zhuye" unicode="&#xe648;" horiz-adv-x="1025" 
d="M867 334q-25 21 -243 200q-74 62 -112 92q-7 -5 -8 -6q-271 -223 -350 -289q-7 -6 -7 -17q-1 -108 0 -292q0 -46 46 -46h225q1 0 13 1v243h162v-244h14h223q48 0 48 49q0 53 -0.5 95.5t0 95.5t0.5 96q0 13 -11 22zM1010 400q-96 80 -115 95q-18 14 -18 38q1 45 1 230
q0 14 -5 20t-17 6q-60 1 -119 0q-21 0 -22 -21v-38v-84q-11 9 -13 11q-89 74 -133 110q-57 48 -114 0q-47 -38 -132.5 -109.5t-110.5 -92.5q-9 -8 -83.5 -70t-113.5 -94q-14 -12 -15 -20.5t12 -22.5q4 -6 13.5 -17t13.5 -16q11 -13 19 -13.5t21 9.5q40 34 152.5 128
t173.5 145q1 0 107 89q9 -8 47 -40t59 -49q54 -45 163.5 -136t164.5 -137q12 -10 20 -9.5t19 13.5q5 6 14.5 17t14.5 17q11 13 10 21.5t-14 19.5z" />
    <glyph glyph-name="posting" unicode="&#xe642;" 
d="M295 614h434q10 0 17 7t7 17v97q0 10 -7 17t-17 7h-55q-16 53 -60.5 87t-101.5 34t-101.5 -34t-60.5 -87h-55q-10 0 -17 -7t-7 -17v-97q0 -10 7 -17t17 -7zM512 832q37 0 66.5 -20t43.5 -53h-220q14 33 43.5 53t66.5 20zM343 711h338q10 0 17 -7.5t7 -17.5t-7 -17t-17 -7
h-338q-10 0 -17 7t-7 17t7 17.5t17 7.5zM681 469h-338q-10 0 -17 -7t-7 -17.5t7 -17.5t17 -7h338q10 0 17 7t7 17.5t-7 17.5t-17 7zM681 348h-338q-10 0 -17 -7t-7 -17.5t7 -17.5t17 -7h338q10 0 17 7t7 17.5t-7 17.5t-17 7zM850 759h-24q-10 0 -17 -7t-7 -17t7 -17t17 -7
h24q20 0 34 -14.5t14 -34.5v-677q0 -20 -14 -34.5t-34 -14.5h-676q-20 0 -34 14.5t-14 34.5v677q0 20 14 34.5t34 14.5h24q10 0 17 7t7 17t-7 17t-17 7h-24q-40 0 -68 -28.5t-28 -68.5v-677q0 -40 28 -68.5t68 -28.5h676q40 0 68 28.5t28 68.5v677q0 40 -28 68.5t-68 28.5z
M681 227h-338q-10 0 -17 -7t-7 -17.5t7 -17.5t17 -7h338q10 0 17 7t7 17.5t-7 17.5t-17 7z" />
    <glyph glyph-name="x" unicode="&#xe600;" 
d="M511 0q-104 0 -192 51.5t-139.5 140t-51.5 192.5q0 105 53.5 195.5t146.5 140.5q14 8 29 3.5t22.5 -18.5t3.5 -29t-18 -23q-74 -40 -117 -112.5t-43 -156.5q0 -127 89.5 -217t216.5 -90t217 90t90 217q0 83 -42.5 155t-114.5 112q-14 8 -18.5 23.5t3.5 29t23 18t29 -3.5
q91 -51 143.5 -140.5t52.5 -193.5t-51 -192.5t-139.5 -140t-192.5 -51.5zM513 315q-16 0 -27.5 11t-11.5 27v433q0 16 11.5 27t27.5 11t27 -11t11 -27v-433q0 -16 -11 -27t-27 -11z" />
    <glyph glyph-name="shibai1" unicode="&#xe643;" horiz-adv-x="1031" 
d="M868 734q-72 70 -164 107.5t-193 37.5t-193.5 -37.5t-164 -107.5t-109.5 -161t-38 -190.5t38 -190t109.5 -161t164 -108t193.5 -37.5t193 37.5t164 107.5q97 96 131 224t0 256t-131 223v0v0v0zM822 77q-63 -61 -143 -93.5t-168 -32.5t-168 32.5t-142.5 93.5t-95.5 140
t-33 165.5t33 165.5t95.5 140.5t142.5 94t168 32.5t168 -32.5t143 -94.5q84 -82 114 -193.5t0 -223t-114 -194.5v0v0v0zM681 544q-24 0 -41.5 -17t-17.5 -41t17.5 -41t42 -17t41.5 17t17 41t-17 41t-42 17v0v0v0zM367 428q24 0 41.5 17t17.5 41t-17.5 41t-42 17t-42 -17
t-17.5 -41t17.5 -41t42.5 -17v0v0v0zM511 299q-61 0 -113 -29t-85 -79q-10 -15 -1.5 -31t26.5 -16h2q16 0 25 13q24 36 62.5 57t83.5 21t84 -21t63 -57q9 -13 25 -13h1q18 0 27 16t-1 31q-34 50 -86 79t-113 29v0v0v0zM511 299z" />
    <glyph glyph-name="zhaopian" unicode="&#xe635;" horiz-adv-x="1141" 
d="M18 714v-689q0 -48 12.5 -62t55.5 -14h781q43 0 56 14t13 62v689q0 48 -12.5 62.5t-56.5 14.5h-781q-43 0 -55.5 -14t-12.5 -63v0v0v0zM828 127h-702q46 74 91.5 143t93 129t63.5 60q15 0 51.5 -41.5t84.5 -104.5t63 -80q7 11 19 27t39 43.5t43 27.5q8 0 23.5 -15
t32 -37.5t34.5 -49t31.5 -49t23 -37.5t9.5 -16v0v0v0zM622 561q0 39 25 66.5t60 27.5t59.5 -27.5t24.5 -66.5t-24.5 -66.5t-59.5 -27.5t-60 27.5t-25 66.5v0v0v0zM448 837l-134 28q-33 8 -49 2.5t-24 -30.5h207v0zM1081 704l-105 22v-9v-692q0 -67 -24 -94q-25 -26 -83 -26
h-64l135 -29q42 -9 57.5 2.5t23.5 58.5l115 677q8 47 -2 64t-53 26v0v0v0z" />
    <glyph glyph-name="combinedshape" unicode="&#xe630;" 
d="M512 896q-139 0 -257 -68.5t-186.5 -186.5t-68.5 -257t68.5 -257t186.5 -186.5t257 -68.5t257 68.5t186.5 186.5t68.5 257t-68.5 257t-186.5 186.5t-257 68.5zM790 501l-358 -358l-178 -49q-19 -4 -27.5 4.5t-4.5 27.5l49 178l358 358q15 15 32 15t31 -15l98 -98
q15 -14 15 -31t-15 -32zM290 162l27 100l73 -73zM441 226l-87 87l190 193l90 -90l-193 -190v0v0v0zM668 457l-83 83l56 56q9 11 13.5 11t13.5 -11l56 -56q11 -11 11 -13.5t-11 -13.5l-56 -56v0v0v0z" />
    <glyph glyph-name="sanjiao1" unicode="&#xe65a;" 
d="M750 439l-238 -238l-238 238h476z" />
    <glyph glyph-name="n" unicode="&#xe627;" 
d="M512 896q-139 0 -257 -68.5t-186.5 -186.5t-68.5 -257t68.5 -257t186.5 -186.5t257 -68.5t257 68.5t186.5 186.5t68.5 257t-68.5 257t-186.5 186.5t-257 68.5zM482 490h-105q-44 0 -75 -30.5t-31 -75.5t31 -75.5t75 -30.5h105v-88h-105q-80 0 -136.5 57t-56.5 137
t56.5 137t136.5 57h105v-88v0zM646 190h-104v88h104q45 0 76 30.5t31 75.5t-31 75.5t-76 30.5h-104v88h104q81 0 137.5 -57t56.5 -137t-56.5 -137t-137.5 -57z" />
    <glyph glyph-name="bianji1" unicode="&#xe605;" 
d="M943 52q0 -48 -34 -82t-83 -34h-650q-49 0 -83 34t-34 83v650q0 49 34 83t82 34h373v47h-373q-67 0 -115 -48t-48 -116v-650q0 -68 48 -116t116 -48h650q68 0 116 48t48 115v373h-47v-373zM279 344l-48 -253l30 6v0l8 2l206 46l98 98v0v0l411 411q28 27 28 65.5t-28 66.5
l-66 65q-27 28 -65.5 28t-65.5 -28zM452 187l-162 -35l32 169l70 70l132 -132zM754 753l132 -132l-330 -329l-131 132zM820 819q13 13 32.5 13t33.5 -13l66 -66q13 -14 13 -33t-14 -33l-32 -33l-132 132z" />
    <glyph glyph-name="zuoyoujiantou" unicode="&#xe63e;" 
d="M294 387q0 8 6 14l281 282q6 6 14 6t14 -6l30 -30q6 -6 6 -14t-6 -14l-237 -238l237 -237q6 -6 6 -14t-6 -14l-30 -30q-6 -7 -14 -7t-14 7l-281 281q-6 6 -6 14z" />
    <glyph glyph-name="disanbu" unicode="&#xe622;" 
d="M512 -128q-104 0 -198 40.5t-162.5 108.5t-109 162.5t-40.5 198.5q0 102 39.5 195.5t106.5 161.5t159.5 109t194.5 43v-25q-97 -3 -184.5 -42t-151 -103.5t-101 -153t-37.5 -185.5q0 -99 38.5 -188.5t103 -154.5t154 -103.5t188.5 -38.5t188.5 38.5t154 103.5t103 154.5
t38.5 188.5q0 109 -46 205t-126 165l14 21q86 -72 135 -173.5t49 -217.5q0 -104 -40.5 -198.5t-109 -162.5t-162.5 -108.5t-198 -40.5zM701 827l8 25q39 -16 83 -45l-14 -21q-37 24 -77 41zM592 859l4 25q36 -5 72 -17l-8 -25q-28 10 -68 17zM565 863q-21 3 -43 3v25
q2 0 46 -3zM512 891zM971 384v-1q0 -94 -36.5 -178.5t-98 -146t-146.5 -98t-178 -36.5t-178 36.5t-146.5 98t-98 146t-36.5 178.5v1h918z" />
    <glyph glyph-name="dierbu" unicode="&#xe623;" 
d="M512 -128q-104 0 -198 40.5t-162.5 108.5t-109 162.5t-40.5 198.5q0 102 39.5 195.5t106.5 161.5t159.5 109t194.5 43v-25q-97 -3 -184.5 -42t-151 -103.5t-101 -153t-37.5 -185.5q0 -99 38.5 -188.5t103 -154.5t154 -103.5t188.5 -38.5t188.5 38.5t154 103.5t103 154.5
t38.5 188.5q0 109 -46 205t-126 165l14 21q86 -72 135 -173.5t49 -217.5q0 -104 -40.5 -198.5t-109 -162.5t-162.5 -108.5t-198 -40.5zM701 827l8 25q39 -16 83 -45l-14 -21q-37 24 -77 41zM592 859l4 25q36 -5 72 -17l-8 -25q-28 10 -68 17zM565 863q-21 3 -43 3v25
q2 0 46 -3zM512 891zM914 166q-57 -110 -168 -177.5t-239 -67.5q-127 0 -233 67t-164 178h804z" />
    <glyph glyph-name="diyibu" unicode="&#xe624;" horiz-adv-x="1026" 
d="M512 -128q-139 0 -257 68.5t-186.5 186.5t-68.5 257q0 103 39.5 197t106.5 162.5t160 109.5t196 43v-26q-97 -1 -185.5 -40.5t-152 -104.5t-101 -154t-37.5 -187q0 -99 38.5 -189t103.5 -155t155 -103.5t189 -38.5t189 38.5t155 103.5t103.5 155t38.5 189
q0 110 -46 206.5t-127 165.5l15 21q86 -72 135 -174t49 -219q0 -139 -68.5 -257t-186.5 -186.5t-257 -68.5zM702 832l8 25q39 -16 84 -46l-15 -20q-37 23 -77 41zM593 864l4 25q36 -6 72 -18l-8 -24q-29 10 -68 17zM565 867q-21 3 -43 3v26q2 0 46 -3zM512 896z" />
    <glyph glyph-name="disibu" unicode="&#xe625;" 
d="M512 -128q-139 0 -257 68.5t-186.5 186.5t-68.5 257q0 103 39.5 197t106.5 162t160 109.5t196 43.5v-26q-97 -2 -185.5 -41t-152 -104t-101 -154t-37.5 -187q0 -99 38.5 -189t103.5 -155t155 -103.5t189 -38.5t189 38.5t155 103.5t103.5 155t38.5 189q0 110 -46 206.5
t-127 165.5l15 21q86 -72 135 -174t49 -219q0 -139 -68.5 -257t-186.5 -186.5t-257 -68.5zM702 832l8 25q39 -16 84 -46l-15 -20q-37 23 -77 41zM593 864l4 25q36 -6 72 -18l-8 -24q-29 10 -68 17zM565 867q-21 3 -43 3v26q2 0 46 -3zM512 896zM880 663q93 -123 93 -278
q0 -94 -36.5 -179t-98.5 -147t-147 -98.5t-179 -36.5t-179 36.5t-147 98.5t-98.5 147t-36.5 179q0 155 93 278h736z" />
    <glyph glyph-name="diwubu" unicode="&#xe626;" 
d="M512 -126q-104 0 -198.5 40.5t-163 109t-109 163t-40.5 198.5q0 103 39.5 196.5t106.5 161.5t160 109.5t195 43.5v-26q-97 -2 -185 -41t-151.5 -104t-101 -154t-37.5 -186q0 -99 38 -189t103 -155t155 -103t189 -38t189 38t155 103t103 155t38 189q0 110 -46 206.5
t-126 164.5l14 21q86 -71 135 -173.5t49 -218.5q0 -104 -40.5 -198.5t-109 -163t-163 -109t-198.5 -40.5zM702 832l8 25q39 -16 83 -46l-15 -20q-37 23 -76 41zM593 864l4 25q35 -6 71 -18l-8 -24q-28 10 -67 17zM565 868q-21 2 -43 2v26q2 0 46 -3zM512 896zM512 846
q93 0 178.5 -36.5t147 -98t98 -147t36.5 -178.5t-36.5 -178.5t-98 -147t-146.5 -98t-179 -36.5q-93 0 -178.5 36.5t-147 98t-98 147t-36.5 178.5t36.5 178.5t98 147t147 98t178.5 36.5z" />
    <glyph glyph-name="yemiantongyong-neirongzhedie" unicode="&#xe641;" 
d="M512 631l308 -254q7 -5 7.5 -14t-5.5 -15q-13 -13 -27 -2l-270 221q-6 4 -13 4t-13 -4l-270 -221q-14 -11 -27 2q-6 6 -5.5 15t7.5 14l308 254v0zM512 426l308 -253q7 -6 7.5 -14.5t-5.5 -15.5q-13 -13 -27 -1l-270 220q-6 5 -13 5t-13 -5l-270 -220q-14 -12 -27 1v0
q-6 7 -5.5 15.5t7.5 14.5l308 253v0z" />
    <glyph glyph-name="fabu1" unicode="&#xe615;" 
d="M457 787l-60 -60q-9 -10 -22.5 -10t-22.5 9.5t-9 23t9 22.5l113 113h1q9 11 23 11v0q6 0 11 -2h3q13 0 22 -9l113 -113q10 -9 10 -22.5t-9.5 -23t-23 -9.5t-22.5 10l-72 71v-222q0 -13 -9 -22.5t-22 -9.5h-1v0q-13 0 -22.5 9.5t-9.5 22.5v211zM233 288v0q0 13 9.5 22.5
t22.5 9.5h289v0q13 0 22 -9.5t9 -22.5v0v0q0 -13 -9 -22.5t-22 -9.5h-289v0q-13 0 -22.5 9.5t-9.5 22.5v0zM233 128v0q0 14 9.5 23t22.5 9h1h159v0q14 0 23 -9.5t9 -22.5v0v0q0 -13 -9 -22.5t-22 -9.5h-1h-159h-1q-13 0 -22.5 9.5t-9.5 22.5v0zM233.5 448q0.5 13 9.5 22.5
t23 9.5v0h415v0q14 0 23 -9.5t9 -22.5t-9 -22.5t-23 -9.5v0h-415v0q-14 0 -23.5 9.5t-9 22.5zM830 337q8 8 22.5 14t26.5 6q13 0 27.5 -6.5t23.5 -15.5v0q9 -9 14.5 -23.5t5.5 -26.5t-6 -27t-15 -24l-375 -362h-97v96zM713 768h37q54 0 91.5 -37.5t37.5 -90.5v-167h-64v167
q0 27 -19 45.5t-46 18.5h-37v64zM266 704h-65q-26 0 -44.5 -19t-18.5 -45v-640v0q0 -26 18.5 -45t45.5 -19h118v-64h-118q-53 0 -90.5 37.5t-37.5 90.5v640q0 53 37.5 90.5t89.5 37.5h65v-64v0z" />
    <glyph glyph-name="daishenhe" unicode="&#xe66b;" 
d="M794 100q-99 -99 -236 -115t-256 57l-6 4l29 17l3 -1q108 -63 232 -46.5t213 105.5q52 52 80 119.5t28 140.5v3l29 17v-8q2 -83 -28 -158.5t-88 -134.5zM743 147l-21 -17l-4 27l-21 15l23 13l8 26l19 -19l26 1l-12 -25l8 -25zM611 66l-26 -7l7 27l-13 22l26 3l18 20
l10 -24l24 -10l-21 -18l-2 -26zM831 273l-16 -22l-12 25l-24 8l18 19v27l23 -12l25 8l-4 -26l15 -22zM1011 475q-5 -5 -10 -8l-808 -466q-10 -6 -23 -6q-6 0 -12 1q-18 5 -27 22l-125 215q-6 11 -6 23q0 19 13 32q5 5 10 8l808 466q10 6 23 6q6 0 12 -1q18 -5 27 -22
l125 -215q6 -11 6 -23q0 -19 -13 -32zM41 271q-8 -8 -8 -19q0 -7 4 -13l114 -198q8 -13 23 -13q7 0 13 4l790 456q14 7 14 23q0 7 -4 13l-114 198q-5 9 -16 12q-4 1 -7 1q-7 0 -13 -4l-790 -456q-3 -1 -6 -4zM698 195q-48 -49 -115.5 -67.5t-134.5 -1.5l-10 2l38 22h1
q55 -8 108 9.5t93 56.5q14 14 29 37.5t23 42.5v1l38 22l-3 -10q-7 -27 -27 -60.5t-40 -53.5zM467 54l-17 -20l-11 23l-25 10l20 17l2 26l23 -13l26 7l-6 -25l15 -22zM699 700l-3 1q-108 63 -232 46.5t-213 -105.5q-52 -52 -80 -119.5t-28 -140.5v-3l-29 -17v8
q-2 83 28 158.5t88 134.5q99 99 236 115t256 -57l6 -4zM548 613h-1q-56 8 -108.5 -9t-91.5 -57q-15 -14 -30.5 -37.5t-22.5 -42.5v-1l-38 -22l3 10q7 27 27 60.5t40 53.5q48 49 115.5 67.5t134.5 1.5l10 -2zM566 665l-26 -8l4 26l-16 20l27 5l16 21l12 -22l26 -8l-19 -19
v-26zM447 666l-18 -20l-10 24l-24 10l20 18l3 26l22 -13l27 7l-7 -27l13 -22zM216 457l-24 -8l4 27l-16 22l26 4l15 23l12 -25l25 -8l-18 -19v-28zM296 591l-26 -1l12 25l-8 25l26 -3l21 16l5 -27l20 -15l-23 -13l-8 -26zM401 191q-5 -4 -10 -7q-4 -2 -12.5 -7t-14.5 -9
l-7 -4l-3 3q-5 6 -12 14l-4 5l5 2q16 8 31 17q2 1 3 2q5 4 0 12l-21 37l-56 -33q22 -6 42 -14l4 -2l-10 -25l-4 2q-20 9 -41 16l-4 1l8 19l-27 -15l-12 21l87 51l-10 17l-87 -51l-8 13q0 -10 -1 -20l63 -109l-22 -13l-46 80q-3 -14 -6 -26l-2 -7l-5 4q-7 6 -16 12l-2 2l1 3
q11 38 10 90v5l27 1q-1 -9 -1 -11l54 31l-12 21l-50 -29l-12 21l49 29l-16 27l24 14l16 -28l50 30l12 -21l-50 -30l12 -20l58 34l13 -22l-29 -17l10 -17l30 18l12 -21l-30 -18l24 -42q13 -21 -2 -36zM184 229q-7 5 -15 9l-4 2l1 4q15 37 15 81v4h28v-5q-4 -52 -18 -93l-2 -5
zM560 278l-25 43l-42 -25l5 -9l-22 -13l-58 101l-18 -10l-26 44l83 48q-6 3 -14 6l-4 2l13 24l3 -2q15 -5 26 -11l4 -2l-1 -1l77 45l26 -45l-17 -10l58 -100l-22 -13l-5 9l-43 -25l25 -42zM588 381l-9 15l-43 -25l10 -15zM523 342l-9 16l-43 -25l9 -15zM567 417l-9 15
l-43 -24l9 -16zM502 379l-9 15l-43 -24l9 -16zM562 463l-11 20l-59 -35l11 -19zM480 415l-11 20l-59 -35l11 -19zM875 466q-28 7 -60 14q-14 -42 -40 -78l-2 -3l-3 2l-18 6l-6 2l4 5q50 66 56 154v4l27 -1v-5q-2 -31 -10 -61q31 -5 59 -11l4 -1l-7 -28zM721 371l-50 85
q3 -23 2 -41l-1 -9l-6 6q-7 7 -16 14l-2 1v2v10q0 36 -10 72l-27 -16l-13 21l29 17l-23 39l22 12l23 -38l18 10l-6 11l57 34q-10 4 -20 9l-4 1l12 24l3 -2q16 -6 31 -12l4 -2l-2 -4l51 30l13 -22l-41 -24l28 1v-4q0 -80 -46 -157l-2 -3l-3 1q-9 3 -18 5l-6 2l3 5
q23 36 34 73l-23 -18q-5 -3 -9 -7l-5 -5h-1l-5 -20l-4 2q-10 3 -21 5l56 -95zM763 556q2 16 2 31v8v4l-30 -18q-2 -23 -5 -46q24 15 33 21zM679 506l26 -6l-9 6l2 4q5 8 6 15q3 20 4 41l-31 -18l7 -11l-23 -13l13 -21v3h5z" />
    <glyph glyph-name="zhongzhi" unicode="&#xe662;" 
d="M512 894q-104 0 -198 -40.5t-162.5 -109t-109 -162.5t-40.5 -198t40.5 -198t109 -162.5t162.5 -109t198 -40.5t198 40.5t162.5 109t109 162.5t40.5 198t-40.5 198t-109 162.5t-162.5 109t-198 40.5zM732 217q10 -11 10 -26t-11 -26t-26 -11t-26 9l-168 168l-167 -167
q-11 -10 -26 -10t-26 11t-11 26t9 26l168 168l-168 167q-9 11 -9 26t11 26t26 11t26 -9l167 -168l168 168q11 9 26 9t26 -11t11 -26t-9 -26l-168 -167z" />
    <glyph glyph-name="close_circle_surface" unicode="&#xe6be;" 
d="M829 701q-86 86 -201.5 116.5t-231 0t-201.5 -116.5t-116.5 -201.5t0 -231t116.5 -201.5t201.5 -116.5t231 0t201.5 116.5t116.5 201.5t0 231t-116.5 201.5zM533 149q0 -8 -6 -14.5t-15 -6.5t-15 6.5t-6 14.5v214h-214q-8 0 -14.5 6t-6.5 15t6.5 15t14.5 6h214v214
q0 8 6 14.5t15 6.5t15 -6.5t6 -14.5v-214h214q8 0 14.5 -6t6.5 -15t-6.5 -15t-14.5 -6h-214v-214z" />
    <glyph glyph-name="huifu" unicode="&#xe64b;" 
d="M512 896q-139 0 -257 -68.5t-186.5 -186.5t-68.5 -257t68.5 -257t186.5 -186.5t257 -68.5t257 68.5t186.5 186.5t68.5 257t-68.5 257t-186.5 186.5t-257 68.5zM795 129q-6 -14 -13 0q-2 4 -4 9.5t-9.5 22.5t-16.5 33t-24.5 37t-32 38t-39.5 32.5t-48 23.5t-56.5 8.5
t-64.5 -10.5v-80q0 -2 -0.5 -5t-3.5 -9.5t-7.5 -10t-13 -2t-20.5 9.5l-205 178q-2 1 -4.5 2.5t-7.5 7.5t-6.5 12t3 15.5t17.5 18.5l208 178q1 1 3.5 2.5t8 3.5t10.5 1.5t10 -6t7 -15.5v-87q41 0 107 -22q166 -56 203 -203q20 -79 -1 -183z" />
    <glyph glyph-name="fuzhi" unicode="&#xe75b;" 
d="M512 832q-91 0 -174 -35.5t-143 -95.5t-95.5 -142.5t-35.5 -174t35.5 -174t95.5 -142.5t143 -95.5t174 -35.5t174 35.5t143 95.5t95 143t35 174t-35 173.5t-95 142.5t-143 95.5t-174 35.5zM352 247h-102v410h410v-102h-69v34h-273v-273h34v-69v0zM796 111h-410v410h410
v-410zM455 452h273v-273h-273v273z" />
    <glyph glyph-name="zuoyoujiantou-copy" unicode="&#xe640;" 
d="M730 381q0 -8 -6 -14l-281 -282q-6 -6 -14 -6t-14 6l-30 30q-6 6 -6 14t6 14l237 238l-237 237q-6 6 -6 14t6 14l30 30q6 7 14 7t14 -7l281 -281q6 -6 6 -14z" />
    <glyph glyph-name="close_circle_surface-copy" unicode="&#xe721;" 
d="M960 384q0 122 -60 225t-163 163t-225 60t-225 -60t-163 -163t-60 -225t60 -225t163 -163t225 -60t225 60t163 163t60 225zM361 203q-6 -6 -15 -6t-15 6t-6 15t6 15l151 151l-151 151q-6 6 -6 15t6 15t15 6t15 -6l151 -151l151 151q6 6 15 6t15 -6t6 -15t-6 -15
l-151 -151l151 -151q6 -6 6 -15t-6 -15t-15 -6t-15 6l-151 151z" />
    <glyph glyph-name="sanjiao1-copy" unicode="&#xe773;" 
d="M567 146l-238 238l238 238v-476z" />
    <glyph glyph-name="icon1" unicode="&#xe607;" 
d="M372 285q47 -47 113 -47t113 47t47 113t-47 113t-113 47t-113 -47t-47 -113t47 -113zM512 896q-138 0 -256 -69t-187 -187t-69 -256t69 -256t187 -187t256 -69t256 69t187 187t69 256t-69 256t-187 187t-256 69zM666 269l115 -115q9 -10 9 -23t-9.5 -22.5t-22 -9.5
t-22.5 10l-115 115q-67 -53 -152 -48t-143 67q-67 67 -67 159t67.5 154.5t159.5 62.5t154 -62t68 -144.5t-42 -143.5z" />
  </font>
</defs>
</svg>
